<?xml version="1.0" encoding="utf-8"?>
<!-- Generator: Adobe Illustrator 24.1.3, SVG Export Plug-In . SVG Version: 6.00 Build 0)  -->
<svg version="1.1" id="Layer_1" xmlns="http://www.w3.org/2000/svg" xmlns:xlink="http://www.w3.org/1999/xlink" x="0px" y="0px"
	 viewBox="0 0 192.3 93.9" style="enable-background:new 0 0 192.3 93.9;" xml:space="preserve">
<style type="text/css">
	.st0{fill:#F6A500;}
	.st1{fill:#E30613;}
	.st2{fill:#005FA0;}
	.st3{font-family:'ArialMT-Bold';}
	.st4{font-size:7.1059px;}
</style>
<g>
	<g id="Group_307" transform="translate(55.608)">
		<g id="Group_306">
			<path id="Path_794" class="st0" d="M23.5,47.2c-0.3,0.2-0.7,0.5-1,0.7c-0.2-1-1-1.7-2-1.8c0.6-0.4,1.3-0.8,1.9-1.3
				c1.9-1.3,1.5-5.1-1.3-4.8c-0.5,0.1-1.1,0.1-1.6,0.2c0,0,0-0.1,0-0.1c-0.2-0.6-0.6-1.1-1.1-1.5c0.7-0.4,1.5-0.9,2.2-1.3
				c2.4-1.4,0.8-5.9-2-4.7c-2.9,1.2-5.9,2.4-8.9,3.6l8.3-3.8c2.7-1.2,0.8-5.5-2-4.7l-6.5,1.9c0-0.1-0.1-0.2-0.1-0.2
				c-0.1-0.2-0.3-0.4-0.4-0.5l2-0.8c3-1.2,1.9-5.9-1.4-5c-2.5,0.7-5,1.4-7.6,2.1l3.2-1.4c2.6-1.2,0.8-5.7-2-4.7
				c-2,0.7-4.1,1.4-6.2,2C-3.5,20.4-4.3,20-5.2,20c1.1-1.4-0.1-3.9-1.9-4.1c-0.5-1-1.7-1.4-2.7-1c-0.8,0.3-1.7,0.5-2.5,0.8
				c-0.5-1.2-1.9-1.8-3.1-1.4l-2.9,0.9c-0.3-1.5-1.8-2.5-3.3-2.2c-0.3,0.1-0.5,0.1-0.8,0.3c-3.7,2-7.3,4.3-10.8,6.8
				c-0.7,0.5-1.1,1.3-1.2,2.1c-1.4,0.5-2.8,1.1-4.2,1.6c-1.4,0.4-2.3,1.9-1.9,3.4c0.3,1.1,1.3,1.9,2.4,2l-8.1,3.6
				c-2.7,1.2-0.8,5.6,2,4.7c0.5-0.2,1-0.3,1.6-0.5c0,0.6,0.3,1.1,0.6,1.5c-1.1,0.4-2.3,0.9-3.4,1.3c-3,1.2-1.8,6,1.4,5
				c0.9-0.3,1.8-0.6,2.6-0.9c0.1,0.1,0.1,0.2,0.2,0.2l-5.8,2.4c-1.3,0.4-2.1,1.8-1.8,3.2c0.4,1.4,1.8,2.2,3.2,1.8l0.1,0
				c-0.5,0.8-0.5,1.9,0,2.7c0.2,0.4,0.6,0.7,0.9,1l-3.7,1.7c-2.7,1.2-0.8,5.6,2,4.7c0.9-0.3,1.8-0.6,2.6-0.8c0,0.6,0.3,1.2,0.7,1.7
				c-1,0.5-2,1-3.1,1.5c-2.5,1.3-0.8,5.8,2,4.7c1.4-0.5,2.8-1.1,4.1-1.6c-0.2,0.7,0,1.5,0.3,2.1c-0.8,0.4-1.6,0.8-2.4,1.2
				c-3,1.5-0.4,5.9,2.6,4.4c0.4-0.2,0.9-0.4,1.3-0.7c0.1,1.2,1.2,2.1,2.4,2c0.2,0,0.5-0.1,0.7-0.2c1.7-0.7,3.5-1.3,5.2-2
				c0,0.5,0.2,1.1,0.5,1.5c-0.8,0.3-1.6,0.7-2.5,1c-0.9,0.3-1.7,0.7-2.6,1c-3,1.2-1.8,6.1,1.4,5c0.9-0.3,1.8-0.7,2.7-1.1
				c0.8-0.3,1.7-0.6,2.5-0.9c-0.6,0.8-0.8,1.9-0.4,2.8c1.8-1.5,6.8-5.5,7.8-12.6l1-10.4v0c-0.1-1.7-1.4-3-3.1-3.1
				c-5-0.1-9.9-0.2-14.9-0.3c-0.5,0-0.9,0.1-0.9,0.7c-0.1,0.3-0.2,0.7-0.4,1c-0.3,0.5-0.7,0.9-1.4,0.7c-0.6-0.2-0.9-0.9-0.8-1.5
				c0-0.3,0.4-0.7,0.1-1c-0.2-0.2-0.6,0.1-1,0.2c-0.3,0.1-0.7,0.1-1,0c-0.5-0.1-0.8-0.5-0.9-1c-0.1-0.4,0.1-0.8,0.5-1
				c0.5-0.3,1-0.5,1.5-0.7c0,0,0.1-0.1,0-0.1c0,0,0,0,0,0c-0.3-0.2-0.6-0.3-0.9-0.4c-0.5-0.3-0.9-0.6-0.8-1.3
				c0.1-0.6,0.6-0.7,1.1-0.8c0.7-0.1,1.4,0,2.1,0.2c0.5,0.1,0.5,0,0.5-0.5c0-0.6-0.1-1.2,0.5-1.5c0.5-0.3,1.1-0.2,1.4,0.3
				c0.1,0.1,0.1,0.3,0.2,0.4c0.1,0.5,0.2,1,0.1,1.4c-0.1,0.5,0.1,0.6,0.5,0.7c2.9,0.1,5.8,0.2,8.7,0.3c2.8,0.1,12.7-0.8,12.7-0.8
				l-0.4-1.8c0,0,0-0.1-0.1-0.1c-4.1,0-7.7-2.5-9.2-6.3c0,0-0.1,0-0.1,0c-0.9,0.1-1.7-0.5-1.8-1.3c-0.2-0.8,0.2-1.7,1.1-1.9
				c0,0,0,0,0,0c0,0,0.1,0,0.1,0l0-0.1c0-0.5-0.3-0.9-0.8-1c-1.4-0.4-2.9-0.4-4.4-0.1c-2.6,0.5-4.8,2.1-6,4.5
				c-0.5,0.9-1.6,1.2-2.4,0.8c-0.5-0.3-0.8-0.7-0.9-1.2l0-0.1c-0.9-4,2-8,6.6-8.9c2.8-0.6,5.7,0.1,7.8,2c0.2,0.2,0.6,0.2,0.8,0
				c0.1-0.1,0.1-0.1,0.1-0.2c1.2-2.9,3.7-5,6.7-5.6c3-0.6,6.2,0.3,8.5,2.4c0.2,0.2,0.6,0.2,0.8,0c0.1-0.1,0.1-0.2,0.1-0.3
				c0.4-3.2,2.6-5.9,5.6-6.9c4.3-1.6,9,0.2,10.4,4l0,0c0.4,0.9-0.1,2-1,2.3c-0.5,0.2-1.1,0.2-1.6-0.1c-2.3-1.3-5-1.5-7.5-0.5
				C-5.3,32.3-7,33.8-8,35.8c0,0,0.4,0.8,0.5,1.2c0.1,0,0.1,0,0.2-0.1c0.9-0.1,1.7,0.5,1.8,1.3c0.2,0.8-0.2,1.7-1.1,1.9c0,0,0,0,0,0
				c-0.1,0-0.1,0-0.2,0c0,0-0.1,0-0.1,0.1c0,0,0,0,0,0c0.2,4-2,7.7-5.6,9.3c0,0,0,0.1,0,0.1l0.4,1.7c0,0,0.1,0.1,0.1,0.1
				c0,0,0,0,0,0c5.9-1.7,12.2-4.9,15.6-6.6c1.6-0.8,3.2-1.6,4.8-2.4c0.5-0.2,0.5-0.4,0.1-0.8c-0.9-0.9-0.8-1.8,0-2.3
				c0.8-0.4,1.3-0.3,1.7,0.7c0.3,0.8,0.7,0.8,1.2,0.4c2-1.6,2.9-0.9,3.2-0.1c0.3,0.6-0.3,1.1-0.8,1.7c-0.1,0.1-0.1,0.3,0,0.5
				c0,0,0.1,0.1,0.1,0.1c0.4,0.1,0.8,0.2,1.2,0.3c0.6,0.1,1,0.7,1,1.4c-0.1,0.7-0.6,0.9-1.2,0.9c-0.1,0-0.1,0-0.2,0
				c-0.6-0.1-1.1-0.1-0.6,0.8c0.2,0.4,0,0.8-0.3,1c-0.3,0.2-0.7,0.3-1,0.1c-0.2-0.1-0.5-0.2-0.6-0.4c-0.5-0.7-1-0.5-1.6-0.2
				c-4.7,2.3-9.4,4.6-14,6.9c-1.5,0.7-2.1,2.5-1.5,4l5.4,12.3c1.6,4,4.4,7.4,8,9.8c0.9-0.8,1.8-1.5,2.6-2.4c1-1.1,0.9-2.9-0.2-3.9
				c0,0-0.1-0.1-0.1-0.1l5.2-2.8c1.9-1,1.5-3.1,0.2-4.1c0.5-0.3,0.9-0.7,1.4-1c0.9-0.6,1.3-1.7,1.1-2.8c0.8-0.5,1.5-0.9,2.3-1.4
				c2.6-1.6,0.7-5.4-2-4.7c2.5-1.6,4.9-3.2,7.4-4.9C28.8,49.8,26.3,45.3,23.5,47.2z"/>
			<path id="Path_795" class="st0" d="M-18,41.8c0.1-0.2,0.1-0.5-0.1-0.6c-0.4-0.4-1-0.7-1.6-0.7c-1.1,0-2,0.8-2.2,1.8
				c0,0.1,0,0.3,0.1,0.4c0.1,0.1,0.3,0,0.4-0.1c0.7-0.8,1.8-1,2.8-0.7C-18.3,42.1-18.1,42-18,41.8z"/>
			<path id="Path_796" class="st0" d="M-15.4,48.2c1.1-0.1,2.1-0.6,2.8-1.5c0.3-0.5,0.5-1,0.4-1.6c-2.2,0.5-4.3,1-6.5,1.6
				c0.2,0.3,0.4,0.6,0.7,0.8C-17.4,48.1-16.4,48.3-15.4,48.2z"/>
			<path id="Path_797" class="st0" d="M-13.9,40.9c0.7-0.8,1.8-1.1,2.8-0.7c0.2,0.1,0.3,0.1,0.4-0.1c0.1-0.2,0-0.3-0.1-0.5
				c-0.8-1-2.2-1.1-3.2-0.3c-0.4,0.3-0.6,0.7-0.7,1.1c-0.1,0.2,0,0.5,0.2,0.6C-14.3,41.1-14.1,41.1-13.9,40.9z"/>
		</g>
		<path id="Path_798" class="st1" d="M-12.4,59.9c0-0.1,0.1-0.2,0.1-0.3c0.3-1.4,1.8-2.3,3.2-1.9c0.4,0.1,0.7,0.3,1,0.5
			c1,0.7,1.5,2,1.3,3.2c-0.2,1.7-1,3.4-2.2,4.6c-0.6,0.6-1.2,1.2-1.9,1.7c-0.1,0.1-0.2,0.1-0.4,0.1c-1.8-0.6-3.3-1.5-4.6-2.9
			c-0.8-0.8-1.4-1.8-1.6-3c-0.3-1.6,0.7-3.1,2.3-3.5c0,0,0.1,0,0.1,0c1-0.2,2,0.3,2.5,1.2C-12.5,59.7-12.5,59.8-12.4,59.9z"/>
	</g>
	<g id="Group_310" transform="translate(0 69.737)">
		<g id="Group_308" transform="translate(17.872 42.842)">
			<path id="Path_799" class="st2" d="M98.2-61c1.6,0.3,2.7,1,3.2,2.2c0.1,0.5,0.2,1,0.1,1.5c-0.1,0.2-0.1,0.3-0.2,0.3l0.1,0.2
				l0,0.2c0,0.1-0.2,0.2-0.6,0.4l-0.2,0l-0.5-0.2c-0.1,0-0.2,0-0.3,0c-0.6-0.5-1.3-0.8-2-1.2c-2,0.2-3.4,0.6-4.1,1.3
				c-0.5,0.5-1,1-1.5,1.6c-1.5,2.1-2.5,3.6-2.7,4.6c-0.1,0.7,0,1.4,0.4,2c0,0.2,0.2,0.6,0.7,1.3c1,0.9,2.1,1.5,3.3,2
				c0.3,0.1,0.5,0.2,0.8,0.2l0.3,0c0.1-0.1,0.3-0.1,0.4-0.1c0.4,0.2,0.6,0.3,0.6,0.3c2.4,0,3.6-0.3,3.7-0.7c0.3-0.3,0.7-0.5,1-0.8
				c0.5-0.1,1-0.2,1.6-0.2c0.5,0.5,0.8,1.2,0.8,2l0,0.2c-0.5,1.2-1,1.9-1.6,2.1c-1.7,0.6-3.6,0.9-5.4,0.8c-0.5-0.1-0.9-0.2-1.4-0.2
				c-2.6-0.5-5-1.8-6.8-3.7c-1.2-1.2-1.9-2.9-1.9-4.6c-0.1-2.5,1-5,2.9-6.6c0.4-0.8,1-1.5,1.7-2.1c0.8-0.8,1.2-1.1,1.3-1.1
				C94-60.8,96.1-61.4,98.2-61z"/>
			<path id="Path_800" class="st2" d="M111.9-63.2l0.3,0.1c0.1,0,0.1-0.1,0.2-0.1l0.1,0.1c0.1,0,0.3,0,0.4-0.1l0.2,0.1
				c0.1-0.1,0.2-0.1,0.3-0.1c0,0.1,0.5,0.3,1.5,0.7c0.3,0.4,0.7,0.8,1,1.1c0.8,1.2,1.3,2.5,1.5,4c0,0.2,0,0.4,0.1,0.6
				c-0.3,1.6-0.7,3.2-1.3,4.8c-0.8,1.8-1.8,3.4-3.1,4.9c0.2,0.4,0.4,0.8,0.6,1.2c0.4,0.8,0.9,1.4,1.5,2c0,0.1,0.1,0.3,0.3,0.5l0,0.5
				c0,0.9-0.5,1.7-1.4,2.1c-0.4,0-0.8-0.1-1.2-0.1c-0.3-0.2-0.6-0.3-0.9-0.3c0-0.5-0.5-1.6-1.5-3.2l-0.1,0c-0.9,0.7-1.9,1.3-2.9,1.8
				c-0.1,0-0.7,0.2-1.8,0.6c-0.2,0-0.3,0-0.4,0.1c-0.6-0.3-1.2-0.5-1.8-0.7c-0.1-0.3-0.2-0.5-0.2-0.8l0-0.3c0.1-0.5,0.6-1,1.5-1.5
				c0.9,0,1.7-0.3,2.4-0.8c0.3,0,1-0.4,1.8-1.3l0-0.2c-0.4-0.6-0.7-1.3-0.9-2c-0.3,0-0.7-1.5-1.1-4.3c0-0.1,0-0.6-0.1-1.6
				c0-0.1,0.1-0.3,0.1-0.4c0-0.1,0-0.3,0-0.4c0.1-0.2,0.2-0.5,0.3-0.8c0-0.1-0.1-0.2-0.1-0.3c0.4-0.9,0.6-1.9,0.8-2.9
				c0.2-0.3,0.4-0.6,0.6-0.9c0.2-0.7,0.6-1.2,1.3-1.5C110.4-62.9,111.2-63.2,111.9-63.2z M110.3-55.3c0,1.6,0.3,3.3,1,4.8
				c0.1,0.2,0.2,0.4,0.2,0.6l0.1,0c1.2-1.6,2-3.5,2.5-5.5c0-0.4,0-0.7,0-0.7l0.1-0.3c-0.1-0.6-0.2-1.1-0.5-1.6
				c0-0.4-0.4-1.1-1.2-1.9c-0.1,0-0.3,0-0.4,0c-0.5,0.3-0.9,0.8-1.1,1.4C110.8-58.7,110.6-57.6,110.3-55.3L110.3-55.3z"/>
			<path id="Path_801" class="st2" d="M126-50.8c0.4,0,0.8,0,1.2,0c0.8,0.1,1.5,0.3,2.3,0.5h0.2c0.1,0,0.3,0,0.4-0.1
				c0.7,0.1,1.4,0.2,2,0.5c0.1,0,0.2,0.3,0.3,1c0.2,0.6,0.5,1.2,0.7,1.8l0,0.7c0.2,0.8,0.4,1.6,0.6,2.4c0,0.1-0.1,0.2-0.1,0.3
				c0.1,0.1,0.2,0.3,0.2,0.5c0,0.3,0,0.6,0,0.9c0.1,0.4,0.2,0.8,0.3,1.2c0.1,1.1-0.6,2.1-1.7,2.4c-0.2,0.1-0.4,0.1-0.7,0.1
				c-0.1,0-0.3,0-0.4-0.1c-0.1,0-0.2,0.1-0.3,0.1c0-0.1-0.2-0.3-0.7-0.3c0-0.1-0.2-0.3-0.6-0.7l0-0.4h-0.1c-0.4,0.2-0.8,0.5-1.2,0.7
				c0,0.2-0.4,0.3-1.3,0.4c-0.9,0.4-1.9,0.6-2.8,0.5c-1.5-0.1-3-0.8-4.2-1.8c-0.3,0-0.5-0.4-0.7-1.1c-0.2,0-0.3-0.4-0.5-1.1l0.1-0.2
				l-0.1-0.2l0.1-0.2c-0.1-0.2-0.2-0.3-0.2-0.5c0-0.3,0-0.6,0-0.8c0.4-1.1,0.7-1.7,0.7-1.8c1-1.6,2.4-3,4.1-3.9v0.1
				C124.6-50.3,125.3-50.6,126-50.8z M125.6-47.4c-0.1,0-0.2-0.1-0.3-0.1c-0.5,0.3-0.9,0.6-1.2,1c-0.3,0-0.6,0.4-0.8,1.2
				c-0.3,0.2-0.4,0.6-0.4,0.9c0,0.3,0,0.5,0,0.8c0.2,0.6,0.7,1.2,1.2,1.5c0.3,0.1,0.7,0.3,1.1,0.4l0.4,0c0.2-0.1,0.5-0.1,0.7-0.2
				l0.2,0.1c0.9-0.3,1.4-0.6,1.4-0.9c0.4-0.2,0.8-1.1,1.1-2.5c0-0.2,0-0.4,0-0.6c-0.3-1.2-0.7-1.8-1.3-1.8c-0.3-0.1-0.7-0.2-1-0.2
				C126.2-47.7,125.9-47.5,125.6-47.4L125.6-47.4z"/>
			<path id="Path_802" class="st2" d="M146.5-54.4c0.4,0.2,0.8,0.6,1.1,1c0,0.2,0.1,0.5,0.1,0.7c0,0.1,0,0.1-0.1,0.1l0.1,0.1l0,0.3
				c-0.5,0.7-0.8,1-0.9,1.1c-0.1,0-0.2,0-0.4,0c-0.7,0.2-1.4,0.7-1.9,1.3c-0.8,1.3-1.3,2.8-1.5,4.3c0,0.1,0.1,0.2,0.1,0.2
				c0,0.1,0,0.2,0,0.3c0,0.1,0.1,0.1,0.1,0.2l-0.1,0.1l0.1,0.2c0,0.3,0,0.6,0,0.9l0,0.1c0.2,0.5,0.2,0.8,0.2,0.8l0,0.5
				c0,0.3-0.1,0.6-0.3,0.8c0.1,0.1,0.1,0.1,0.1,0.2c-0.3,0.4-0.8,0.6-1.3,0.6c-1.5-0.4-2.3-0.9-2.4-1.5c-0.1-0.3-0.1-0.6-0.2-0.8
				c0.1,0,0.2-0.1,0.2-0.2c-0.1-0.4-0.3-0.8-0.4-1.2c0-0.1,0-0.2,0.1-0.3c-0.4-1.2-0.7-2.5-1.1-3.7c-0.3-0.5-0.6-1.1-0.7-1.7
				c-0.1,0-0.1,0-0.1-0.1c0-0.7,0.6-1.3,1.8-1.8c0-0.1,0.1-0.2,0.1-0.2c0,0,0,0,0,0l0.1,0c0.3,0.2,0.5,0.5,0.8,0.7
				c0.2,0.3,0.3,0.6,0.4,1l0.2,0c0-0.4,0.6-1.2,1.8-2.3c0.3-0.1,0.6-0.3,0.8-0.6C144.5-53.9,145.5-54.3,146.5-54.4z"/>
			<path id="Path_803" class="st2" d="M160.4-57.1l0.3-0.1c0.3-0.1,1.3,0.2,2.8,0.8c0.8,0.5,1.6,1,2.4,1.5c0.4,0.5,0.8,1,1.3,1.3
				c0.4,0.5,0.7,1.1,0.9,1.7l-0.1,0.2c0.1,0.1,0.1,0.3,0.2,0.4l0.1,0.2c0,0.1,0,0.2,0,0.3l0.1,0.1c0.1,1,0.1,2-0.1,3.1
				c-0.3,0.8-0.8,1.6-1.4,2.3c-1.6,2-3.9,3.4-6.4,4c-1.6,0-3.2-0.2-4.8-0.6c-0.1-0.1-0.4-0.2-1-0.3c0-0.3-0.3-0.4-0.7-0.5
				c0-0.2-0.5-0.4-1.3-0.7c-0.5-0.4-0.9-0.9-1.1-1.5c-0.4-0.6-0.7-1.3-0.8-2c0-1.1,0.2-2.1,0.5-3.1c0.5-0.7,1-1.4,1.6-2.1
				c0.2-0.4,0.5-0.8,0.9-0.9c0.4-0.4,0.8-0.8,1.3-0.9c0.5-0.7,0.9-1.1,1.2-1.2c0.6-0.6,1.3-1.1,2-1.5C159-56.8,159.7-57,160.4-57.1z
				 M157.9-50.7c0.1,0.1,0.1,0.1,0.1,0.2c-0.2,0.5-0.7,0.8-1.2,0.9c0,0.1,0,0.1-0.1,0.1l-0.1,0c-0.5-0.1-0.9-0.2-1.4-0.3
				c-0.4,0.6-0.7,1.3-0.8,2.1c0.1,0.2,0.1,0.3,0.2,0.5c0,0.1-0.1,0.2-0.1,0.2c0.1,0,0.3,0.3,0.5,0.9c1.5,1.2,2.7,1.6,3.6,1.5
				c0,0,0.2,0.1,0.5,0.2c0.5-0.1,1.1-0.2,1.6-0.3c1.2-0.4,2.3-1.1,3.1-2.1c0.9-0.9,1.2-2.1,0.9-3.3c-0.1-0.1-0.2-0.3-0.3-0.4
				c0.1,0,0.2-0.1,0.1-0.2c-0.4-0.5-0.7-0.9-0.9-1.4c-1.3-1.1-2.3-1.6-2.8-1.5l-0.1,0c-2,1.1-2.9,2-2.8,2.8
				C157.9-50.8,157.9-50.8,157.9-50.7L157.9-50.7z"/>
		</g>
		<g id="Group_309" transform="translate(0.709 16.293)">
			<path id="Path_804" class="st2" d="M95.8-54.3c0.9-0.2,1.5-0.1,1.8,0.1c0.9,0.4,1.6,0.9,2.2,1.6c0.4,0.4,0.8,0.9,1.1,1.4l0.2,0
				c0.4-0.5,0.8-1.1,1.1-1.7c0.9-0.8,2-1.4,3.1-1.9c1.2-0.2,2.3,0.1,3.4,0.6c1.2,0.9,2.2,2,3,3.2l0.2,0c0.9-1.5,2.3-2.6,3.9-3.2
				c0.4-0.2,0.9-0.4,1.4-0.5c0.3,0,0.6-0.1,0.9-0.1c1.5-0.1,3,0.7,4.6,2.6c0.4,0,1,1.1,1.9,3.5c0.9,2.4,1.6,4.9,2,7.5
				c0,0.6-0.2,1.1-0.6,1.6c-0.2,0-0.4,0-0.7,0c-0.2,0-0.4,0.1-0.6,0.3l-0.2,0c-0.8,0-1.6-0.4-2-1.1c0-0.1,0-0.2,0.1-0.3
				c-0.1-0.6-0.2-1.3-0.4-1.9l0.1-0.2c-0.8-3.1-1.4-4.9-1.8-5.3l0-0.1c0-0.1,0-0.1,0.1-0.1c-0.9-1.7-1.5-2.6-1.8-2.7
				c-0.2-0.2-0.5-0.4-0.7-0.5l-0.5,0.1c-1,0.3-1.8,1-2.3,1.8c-0.9,2.3-1.2,3.9-1.1,4.8c0,0.2,0.1,0.4,0.1,0.5c-0.1,0.7-0.1,1.3,0,2
				c0.1,0.3,0.2,0.6,0.2,0.9l0.1,0.5c0,0.1,0,0.2,0,0.3c0.1,0.1,0.2,0.3,0.2,0.5l0,0.2c-0.5,0.9-0.9,1.4-1.3,1.4c0,0,0,0.1,0,0.1
				c0,0,0,0,0,0l-0.1,0c-0.9,0-1.8-0.3-2.5-0.9l-0.1-0.5c0-0.1-0.1-0.3-0.1-0.4c0-0.5,0-1,0-1.5c0,0,0-0.1-0.1-0.1c0,0,0,0,0,0
				c0,0,0-0.2,0-0.5c-0.6-4-1.6-6.8-3.2-8.6c-0.7-0.6-1.3-0.9-1.6-0.8c-1.2,0.7-1.5,4.1-1.1,10l0.1,0.3c0,0.2,0,0.4,0,0.6
				c0,0,0.1,0.2,0.2,0.5c0,0,0,0.1,0,0.1c0,0,0,0,0,0c0,0.1,0.1,0.2,0.1,0.2c0.3,1.3,0.5,2.3,0.6,3c0.2,0.4,0.3,0.6,0.3,0.7
				c-0.2,0-0.4,0.5-0.5,1.2c-0.5,0.2-0.7,0.4-0.8,0.4c-0.5-0.2-1-0.3-1.5-0.3c-0.4-0.2-0.8-0.5-1.2-0.8c0-0.2,0.1-0.3,0.1-0.3
				c-0.1-0.2-0.2-0.3-0.3-0.5l0-0.6l-0.2-0.3c0-0.4-0.1-0.7-0.1-1.1l0-0.1c-0.1-0.2-0.1-0.5-0.2-0.7c0-0.2,0-0.3,0.1-0.5
				c-0.2-0.3-0.3-0.5-0.3-0.8c0-0.1,0-0.2,0-0.3c-0.3-1.5-0.8-3-1.5-4.4l0.1-0.2c-0.7-1.8-1.7-3.5-3-4.9c-0.3-0.3-0.5-0.5-0.6-0.4
				c-0.4,0.4-0.7,1-0.7,1.6c-0.2,0-0.4,0.7-0.5,1.9c-0.1,0-0.2,0.3-0.4,0.8l-0.1,0l-0.6,0.1c-0.1,0.1-0.2,0.1-0.3,0.2
				c0-0.1-0.2-0.2-0.4-0.2c-0.1,0.1-0.2,0.1-0.3,0.2c-0.6,0-1.1-0.2-1.5-0.6l-0.1-0.3c0-2,0.3-3.4,1.1-4.4c0.5-1,1.4-1.8,2.5-2.1
				C94.8-54,95.2-54.3,95.8-54.3z"/>
			<path id="Path_805" class="st2" d="M135.4-50.1c0.4,0,0.8,0,1.2,0c0.8,0.1,1.5,0.3,2.3,0.5h0.2c0.1,0,0.3,0,0.4-0.1
				c0.7,0.1,1.4,0.3,2,0.6c0.1,0,0.2,0.3,0.3,1c0.2,0.6,0.4,1.2,0.6,1.8c0,0.2,0,0.5,0,0.7c0.1,0.8,0.2,1.6,0.4,2.4
				c0,0.1-0.1,0.2-0.1,0.3c0.1,0.2,0.1,0.3,0.1,0.5c0,0.3,0,0.6,0,0.9c0.1,0.4,0.2,0.8,0.2,1.2c0,1-0.7,2-1.6,2.2
				c-0.2,0-0.4,0.1-0.6,0.1c-0.1,0-0.2-0.1-0.3-0.1c-0.1,0-0.2,0.1-0.3,0.1c0-0.1-0.2-0.3-0.6-0.4c0-0.1-0.2-0.3-0.5-0.7l0-0.4h-0.1
				c-0.4,0.2-0.7,0.4-1,0.7c0,0.2-0.4,0.3-1.1,0.4c-0.8,0.4-1.6,0.6-2.5,0.5c-1.1,0-2.3-0.5-3.8-1.6c-0.2,0-0.5-0.3-0.7-1.1
				c-0.2,0-0.3-0.4-0.5-1.1l0.1-0.2l-0.1-0.2l0.1-0.2c-0.1-0.1-0.2-0.3-0.2-0.5c0-0.3,0-0.6,0-0.8c0.3-1.2,0.5-1.8,0.5-1.8
				c0.8-1.7,2.1-3.2,3.8-4.1v0.1C134-49.6,134.7-49.9,135.4-50.1z M135-46.7c-0.1,0-0.2-0.1-0.3-0.1c-0.4,0.3-0.8,0.6-1.2,1
				c-0.3,0-0.5,0.4-0.7,1.2c-0.2,0.3-0.4,0.6-0.3,0.9l0,0.8c0.2,0.6,0.6,1.1,1.2,1.5c0.3,0.1,0.6,0.2,1,0.3l0.4,0l0.6-0.2l0.2,0.1
				c0.9-0.3,1.3-0.6,1.3-0.9c0.4-0.2,0.7-1.1,1.1-2.4c0-0.2,0-0.4,0-0.6c-0.2-1.2-0.6-1.9-1.2-1.9c-0.3-0.1-0.7-0.2-1-0.2
				C135.7-47,135.3-46.9,135-46.7z"/>
			<path id="Path_806" class="st2" d="M156.6-51.6c0.4,0.3,0.7,0.7,0.9,1.2c0,0.2,0,0.5-0.1,0.7c0,0,0,0.1-0.1,0.1c0,0,0,0,0,0
				l0.1,0.2l0,0.3c-0.6,0.6-1,0.8-1.1,0.8c-0.1,0-0.2-0.1-0.3-0.1c-0.8,0.1-1.5,0.4-2.1,0.9c-1,1.1-1.8,2.5-2.2,4c0,0.1,0,0.2,0,0.2
				l-0.1,0.3c0,0.1,0,0.2,0,0.2l-0.1,0.1l0.1,0.2c-0.1,0.3-0.1,0.6-0.1,0.9l0,0.1c0.1,0.5,0.1,0.8,0.1,0.9l0,0.5
				c-0.1,0.3-0.2,0.5-0.4,0.8c0,0.1,0.1,0.2,0.1,0.2c-0.3,0.3-0.8,0.4-1.2,0.4c-1.3-0.6-1.9-1.2-1.9-1.8c0-0.3-0.1-0.6-0.1-0.9
				c0.1,0,0.2,0,0.2-0.1c-0.1-0.4-0.1-0.8-0.3-1.3c0-0.1,0.1-0.2,0.1-0.3c-0.2-1.3-0.4-2.5-0.6-3.8c-0.3-0.6-0.4-1.1-0.5-1.7
				c-0.1,0-0.1,0-0.1-0.1c0-0.7,0.7-1.2,2-1.5c0-0.1,0.1-0.2,0.2-0.1c0,0,0,0,0,0l0.1,0c0.2,0.3,0.5,0.6,0.7,0.8
				c0.1,0.3,0.2,0.7,0.3,1l0.2,0c0-0.4,0.8-1.1,2.2-2c0.3-0.1,0.6-0.2,0.9-0.4C154.4-51.5,155.5-51.7,156.6-51.6z"/>
			<path id="Path_807" class="st2" d="M162.1-55.5l0.2,0c1.2,0.9,1.7,1.6,1.6,2.1c-0.5,1.1-1,1.6-1.7,1.6l-0.1,0
				c-0.1,0-0.1,0-0.1-0.1l-0.6,0.2l-0.2,0c-0.3-0.3-0.6-0.6-1.1-0.8c-0.2-0.4-0.4-0.7-0.7-1l0-0.2c0.1-0.4,0.4-0.8,1.1-1.2l0.3,0
				C161-55,161.3-55.2,162.1-55.5z M161.3-47.5c0,0.2,0.2,0.3,0.5,0.3c0.2,0,0.3,0,0.4-0.1c0.9,0.1,1.2,0.8,1.1,2.2
				c-0.1,1.3,0,2.6,0.1,4c0,0.1-0.1,0.2-0.1,0.1c0,0.1-0.1,1.8-0.2,5c-0.3,1.1-0.6,1.7-1,1.6c-0.1,0-0.2,0.1-0.3,0l-0.3,0
				c-0.5-0.3-1-0.6-1.5-1c-0.1-0.3-0.1-0.6-0.1-0.9c0.1-0.1,0.1-0.1,0.1-0.2c-0.1,0-0.1-1.5,0.1-4.3c0.1-2.8,0-4.3-0.2-4.8l0-0.1
				c0.4-0.9,0.9-1.3,1.4-1.3l0-0.2l-0.2,0.1l-0.1-0.2C161.1-47.3,161.2-47.4,161.3-47.5L161.3-47.5z"/>
			<path id="Path_808" class="st2" d="M173.8-46.4c0.4,0.1,0.8,0.2,1.2,0.2c0.7,0.3,1.5,0.6,2.1,1l0.2,0c0.1,0,0.3,0,0.4,0
				c0.7,0.2,1.3,0.6,1.8,1c0.1,0,0.1,0.4,0,1.1c0.1,0.6,0.1,1.3,0.2,1.9c-0.1,0.2-0.1,0.4-0.2,0.7c0,0.8-0.1,1.6-0.1,2.4
				c-0.1,0.1-0.1,0.1-0.1,0.2c0.1,0.2,0.1,0.3,0,0.5l-0.2,0.8c0,0.4,0,0.8,0,1.2c-0.2,1-1,1.8-2.1,1.9c-0.2,0-0.4,0-0.6-0.1
				c-0.1-0.1-0.2-0.1-0.3-0.2c-0.1,0-0.2,0-0.3,0c0-0.1-0.1-0.3-0.5-0.5c0-0.1-0.1-0.4-0.4-0.8l0.1-0.4l-0.1,0
				c-0.4,0.1-0.8,0.3-1.2,0.4c-0.1,0.1-0.5,0.2-1.2,0.2c-0.8,0.2-1.7,0.2-2.6,0c-1.1-0.2-2.2-1-3.4-2.3c-0.2,0-0.4-0.4-0.5-1.2
				c-0.1,0-0.2-0.4-0.3-1.2l0.1-0.1l-0.1-0.2l0.1-0.1c-0.1-0.2-0.1-0.4-0.1-0.5c0-0.3,0.1-0.5,0.1-0.8c0.5-1.1,0.8-1.6,0.8-1.7
				c1.1-1.5,2.7-2.7,4.5-3.3l0,0.1C172.3-46.3,173-46.4,173.8-46.4z M172.7-43.2c-0.1-0.1-0.2-0.1-0.3-0.1c-0.5,0.2-0.9,0.5-1.3,0.8
				c-0.3-0.1-0.6,0.3-0.9,1c-0.3,0.2-0.5,0.5-0.5,0.9c0,0.2-0.1,0.5-0.1,0.7c0.1,0.6,0.4,1.2,0.9,1.7c0.3,0.2,0.6,0.4,0.9,0.5
				l0.3,0.1c0.2,0,0.4,0,0.6,0l0.1,0.1c0.9-0.1,1.4-0.3,1.5-0.7c0.4-0.2,0.9-0.9,1.6-2.2c0-0.2,0.1-0.4,0.1-0.6c0-1.3-0.3-2-0.9-2.1
				c-0.3-0.2-0.6-0.3-1-0.4C173.4-43.4,173-43.3,172.7-43.2L172.7-43.2z"/>
		</g>
		<text transform="matrix(1 0 0 1 91.0453 -44.0427)" class="st2 st3 st4">INSTITUTO</text>
	</g>
</g>
</svg>
